<mxfile host="Electron" modified="2024-11-26T01:06:52.412Z" agent="Mozilla/5.0 (Windows NT 10.0; Win64; x64) AppleWebKit/537.36 (KHTML, like Gecko) draw.io/22.1.16 Chrome/120.0.6099.109 Electron/28.1.0 Safari/537.36" etag="5RCKj_is44E_OlshI44p" version="22.1.16" type="device">
  <diagram name="Page-1" id="QuKfJm8cBKCZM6e1RuhO">
    <mxGraphModel dx="1434" dy="844" grid="1" gridSize="10" guides="1" tooltips="1" connect="1" arrows="1" fold="1" page="1" pageScale="1" pageWidth="850" pageHeight="1100" math="0" shadow="0">
      <root>
        <mxCell id="0" />
        <mxCell id="1" parent="0" />
        <mxCell id="-Cu9nxykN7aYnu276-Gp-2" value="AWS Cloud" style="points=[[0,0],[0.25,0],[0.5,0],[0.75,0],[1,0],[1,0.25],[1,0.5],[1,0.75],[1,1],[0.75,1],[0.5,1],[0.25,1],[0,1],[0,0.75],[0,0.5],[0,0.25]];outlineConnect=0;gradientColor=none;html=1;whiteSpace=wrap;fontSize=12;fontStyle=0;container=1;pointerEvents=0;collapsible=0;recursiveResize=0;shape=mxgraph.aws4.group;grIcon=mxgraph.aws4.group_aws_cloud_alt;strokeColor=#232F3E;fillColor=none;verticalAlign=top;align=left;spacingLeft=30;fontColor=#232F3E;dashed=0;" vertex="1" parent="1">
          <mxGeometry x="160" y="145.5" width="730" height="360" as="geometry" />
        </mxCell>
        <mxCell id="-Cu9nxykN7aYnu276-Gp-3" value="" style="sketch=0;points=[[0,0,0],[0.25,0,0],[0.5,0,0],[0.75,0,0],[1,0,0],[0,1,0],[0.25,1,0],[0.5,1,0],[0.75,1,0],[1,1,0],[0,0.25,0],[0,0.5,0],[0,0.75,0],[1,0.25,0],[1,0.5,0],[1,0.75,0]];outlineConnect=0;fontColor=#232F3E;fillColor=#8C4FFF;strokeColor=#ffffff;dashed=0;verticalLabelPosition=bottom;verticalAlign=top;align=center;html=1;fontSize=12;fontStyle=0;aspect=fixed;shape=mxgraph.aws4.resourceIcon;resIcon=mxgraph.aws4.api_gateway;" vertex="1" parent="-Cu9nxykN7aYnu276-Gp-2">
          <mxGeometry x="40" y="147.5" width="78" height="78" as="geometry" />
        </mxCell>
        <mxCell id="-Cu9nxykN7aYnu276-Gp-5" value="" style="outlineConnect=0;dashed=0;verticalLabelPosition=bottom;verticalAlign=top;align=center;html=1;shape=mxgraph.aws3.lambda_function;fillColor=#F58534;gradientColor=none;" vertex="1" parent="-Cu9nxykN7aYnu276-Gp-2">
          <mxGeometry x="320" y="75.5" width="69" height="72" as="geometry" />
        </mxCell>
        <mxCell id="-Cu9nxykN7aYnu276-Gp-6" value="" style="outlineConnect=0;dashed=0;verticalLabelPosition=bottom;verticalAlign=top;align=center;html=1;shape=mxgraph.aws3.lambda_function;fillColor=#F58534;gradientColor=none;" vertex="1" parent="-Cu9nxykN7aYnu276-Gp-2">
          <mxGeometry x="320" y="214.5" width="69" height="72" as="geometry" />
        </mxCell>
        <mxCell id="-Cu9nxykN7aYnu276-Gp-12" value="" style="edgeStyle=orthogonalEdgeStyle;html=1;endArrow=block;elbow=vertical;startArrow=none;endFill=1;strokeColor=#545B64;rounded=0;entryX=0;entryY=0.5;entryDx=0;entryDy=0;entryPerimeter=0;exitX=1;exitY=0.5;exitDx=0;exitDy=0;exitPerimeter=0;" edge="1" parent="-Cu9nxykN7aYnu276-Gp-2" source="-Cu9nxykN7aYnu276-Gp-3" target="-Cu9nxykN7aYnu276-Gp-6">
          <mxGeometry width="100" relative="1" as="geometry">
            <mxPoint x="128" y="197" as="sourcePoint" />
            <mxPoint x="230" y="171" as="targetPoint" />
          </mxGeometry>
        </mxCell>
        <mxCell id="-Cu9nxykN7aYnu276-Gp-16" value="CreateUrlShortener" style="text;html=1;strokeColor=none;fillColor=none;align=center;verticalAlign=middle;whiteSpace=wrap;rounded=0;" vertex="1" parent="-Cu9nxykN7aYnu276-Gp-2">
          <mxGeometry x="287.25" y="147.5" width="134.5" height="30" as="geometry" />
        </mxCell>
        <mxCell id="-Cu9nxykN7aYnu276-Gp-17" value="RedirectUrlShortener" style="text;html=1;strokeColor=none;fillColor=none;align=center;verticalAlign=middle;whiteSpace=wrap;rounded=0;" vertex="1" parent="-Cu9nxykN7aYnu276-Gp-2">
          <mxGeometry x="291.06" y="294.5" width="126.87" height="30" as="geometry" />
        </mxCell>
        <mxCell id="-Cu9nxykN7aYnu276-Gp-20" value="" style="edgeStyle=orthogonalEdgeStyle;html=1;endArrow=block;elbow=vertical;startArrow=block;startFill=1;endFill=1;strokeColor=#545B64;rounded=0;exitX=1;exitY=0.5;exitDx=0;exitDy=0;exitPerimeter=0;entryX=0;entryY=0.5;entryDx=0;entryDy=0;entryPerimeter=0;" edge="1" parent="-Cu9nxykN7aYnu276-Gp-2" source="-Cu9nxykN7aYnu276-Gp-3" target="-Cu9nxykN7aYnu276-Gp-5">
          <mxGeometry width="100" relative="1" as="geometry">
            <mxPoint x="210" y="284.5" as="sourcePoint" />
            <mxPoint x="310" y="284.5" as="targetPoint" />
          </mxGeometry>
        </mxCell>
        <mxCell id="-Cu9nxykN7aYnu276-Gp-8" value="" style="sketch=0;outlineConnect=0;fontColor=#232F3E;gradientColor=none;fillColor=#232F3D;strokeColor=none;dashed=0;verticalLabelPosition=bottom;verticalAlign=top;align=center;html=1;fontSize=12;fontStyle=0;aspect=fixed;pointerEvents=1;shape=mxgraph.aws4.client;" vertex="1" parent="1">
          <mxGeometry x="50" y="295" width="78" height="76" as="geometry" />
        </mxCell>
        <mxCell id="-Cu9nxykN7aYnu276-Gp-10" value="" style="edgeStyle=orthogonalEdgeStyle;html=1;endArrow=block;elbow=vertical;startArrow=none;endFill=1;strokeColor=#545B64;rounded=0;entryX=0;entryY=0.5;entryDx=0;entryDy=0;entryPerimeter=0;" edge="1" parent="1" source="-Cu9nxykN7aYnu276-Gp-8" target="-Cu9nxykN7aYnu276-Gp-3">
          <mxGeometry width="100" relative="1" as="geometry">
            <mxPoint x="370" y="430" as="sourcePoint" />
            <mxPoint x="470" y="430" as="targetPoint" />
          </mxGeometry>
        </mxCell>
        <mxCell id="-Cu9nxykN7aYnu276-Gp-15" value="Client" style="text;html=1;strokeColor=none;fillColor=none;align=center;verticalAlign=middle;whiteSpace=wrap;rounded=0;" vertex="1" parent="1">
          <mxGeometry x="59" y="380" width="60" height="30" as="geometry" />
        </mxCell>
        <mxCell id="-Cu9nxykN7aYnu276-Gp-7" value="Amazon S3" style="sketch=0;outlineConnect=0;fontColor=#232F3E;gradientColor=none;strokeColor=#ffffff;fillColor=#232F3E;dashed=0;verticalLabelPosition=middle;verticalAlign=bottom;align=center;html=1;whiteSpace=wrap;fontSize=10;fontStyle=1;spacing=3;shape=mxgraph.aws4.productIcon;prIcon=mxgraph.aws4.s3;" vertex="1" parent="1">
          <mxGeometry x="790" y="275.5" width="80" height="100" as="geometry" />
        </mxCell>
        <mxCell id="-Cu9nxykN7aYnu276-Gp-13" value="" style="edgeStyle=orthogonalEdgeStyle;html=1;endArrow=block;elbow=vertical;startArrow=none;endFill=1;strokeColor=#545B64;rounded=0;" edge="1" parent="1" source="-Cu9nxykN7aYnu276-Gp-5" target="-Cu9nxykN7aYnu276-Gp-7">
          <mxGeometry width="100" relative="1" as="geometry">
            <mxPoint x="288" y="342.5" as="sourcePoint" />
            <mxPoint x="490" y="296.5" as="targetPoint" />
          </mxGeometry>
        </mxCell>
        <mxCell id="-Cu9nxykN7aYnu276-Gp-18" value="save original URL" style="edgeLabel;html=1;align=center;verticalAlign=middle;resizable=0;points=[];" vertex="1" connectable="0" parent="-Cu9nxykN7aYnu276-Gp-13">
          <mxGeometry x="-0.1229" y="5" relative="1" as="geometry">
            <mxPoint y="1" as="offset" />
          </mxGeometry>
        </mxCell>
        <mxCell id="-Cu9nxykN7aYnu276-Gp-14" value="" style="edgeStyle=orthogonalEdgeStyle;html=1;endArrow=block;elbow=vertical;startArrow=block;startFill=1;endFill=1;strokeColor=#545B64;rounded=0;exitX=1;exitY=0.5;exitDx=0;exitDy=0;exitPerimeter=0;" edge="1" parent="1" source="-Cu9nxykN7aYnu276-Gp-6" target="-Cu9nxykN7aYnu276-Gp-7">
          <mxGeometry width="100" relative="1" as="geometry">
            <mxPoint x="370" y="430" as="sourcePoint" />
            <mxPoint x="470" y="430" as="targetPoint" />
          </mxGeometry>
        </mxCell>
        <mxCell id="-Cu9nxykN7aYnu276-Gp-19" value="retrieve original URL" style="edgeLabel;html=1;align=center;verticalAlign=middle;resizable=0;points=[];" vertex="1" connectable="0" parent="-Cu9nxykN7aYnu276-Gp-14">
          <mxGeometry x="-0.0978" relative="1" as="geometry">
            <mxPoint x="1" as="offset" />
          </mxGeometry>
        </mxCell>
      </root>
    </mxGraphModel>
  </diagram>
</mxfile>
